# xmcd CD database file
#
# Track frame offsets:
#	151
#	23202
#	51226
#	68214
#	92550
#	103751
#	114783
#	139650
#	162186
#	187130
#	200078
#	221131
#	260670
#	285018
#	307258
#
# Disc length: 4430 seconds
#
# Revision: 0
# Processed by: cddbd v1.5.2PL0 Copyright (c) Steve Scherf et al.
# Submitted via: CDex 1.70beta2
#
DISCID=e0114c0f
DTITLE=Various Artist - History of Jazz
DYEAR=1955
DGENRE=Jazz
TTITLE0=IT'S ALL RIGHT WITH ME (Porter) Jay and Kai Quintet - Jan 25
TTITLE1=THE LADY IN RED (Wrubel-Dixon) Shorty Rogers and His Giants - Mar 1
TTITLE2=LET'S GET LOST (Loesser-McHugh) Chet Baker Quartet - Mar 7
TTITLE3=ALL THAT MEAT AND NO POTATOES (Waller-Kirkeby) Louis Armstrong and His All Stars - Apr 27
TTITLE4=CAN'T WE BE FRIENDS (Swift-James) Betty Carter with Ray Bryant - May 13
TTITLE5=I LET A SONG GO OUT OF MY HEART (Mills-Nomo-Redman-Ellington) Toots Thielemans - Spring
TTITLE6=TWO NOT ONE (Tristano) Lee Konitz with Warne Marsh - Jun 14
TTITLE7=A LITTLE TASTE (Adderley) cannonball Adderley Quintet - Jul 14
TTITLE8=I'VE GOT YOU UNDER MY SKIN (Porter) Stan Kenton and His Orchestra - Jul 20
TTITLE9=YOU STEPPED OUT OF A DREAM (Brown-Kahn) Barney Kessel Quintet - Sep 12
TTITLE10=NIGHTS ON THE TURNTABLE (Mulligan) Gerry Mulligan feat Bob Brookmeyer - Oct 31
TTITLE11=MINOR'S HOLIDAY (Dorham) The Jazz Messengers at The Cafe Bohemia - Nov 11
TTITLE12=STABLEMATES (Golson) The New Miles Davis Quintet feat John Coltrane - Nov 16
TTITLE13=PARADOX (Rollins) Sonny Rollins Quartet feat Max Roach - Dec 2
TTITLE14=A FOGGY DAY (Gershwin) The Charles Mingus Quintet - Dec 23
EXTD=YEAR: 1955
EXTT0=
EXTT1=
EXTT2=
EXTT3=
EXTT4=
EXTT5=
EXTT6=
EXTT7=
EXTT8=
EXTT9=
EXTT10=
EXTT11=
EXTT12=
EXTT13=
EXTT14=
PLAYORDER=
